# xmcd CD database file
#
# Track frame offsets:
#	150
#	7875
#	19578
#	29104
#	42972
#	53030
#	67729
#	85801
#	96901
#	105456
#	116502
#	132747
#	155397
#	162562
#
# Disc length: 2354 seconds
#
# Revision: 0
# Processed by: cddbd v1.5.2PL0 Copyright (c) Steve Scherf et al.
# Submitted via: CDex 1.70beta2
#
DISCID=ae09300e
DTITLE=ぴずやの独房 - Bibamus.moriendum est.
DYEAR=2009
DGENRE=東方アレンジ
TTITLE0=Bienvenida. (ようこそ)
TTITLE1=Té durante noche. (夜夜中に賄ふ紅茶)
TTITLE2=Cereza molida baile. (鬼灯による舞踏)
TTITLE3=Imaginación 17-año-vieja. (十七歳の虚構)
TTITLE4=Tiempo largo de la biblioteca mágica. (魔法図書館で劫臈を経る)
TTITLE5=Extracto peligroso. (邪悪な抽出物)
TTITLE6=Espacio en blanco. (遑の空間)
TTITLE7=Vals horrorizando. (悍ましき三拍子)
TTITLE8=Pierdo mis estribos. (点綴する積聚)
TTITLE9=Orgullo del té. (紅茶の矜持)
TTITLE10=Relajación perfecta. (完全なる寛ぎ)
TTITLE11=Una silla del misterio. (異次元の椅子)
TTITLE12=Fiesta antes del alba. (夜明け前の祭り)
TTITLE13=Cerrando eterno tienda. (永遠の閉店) 
EXTD=YEAR: 2009
EXTT0=
EXTT1=
EXTT2=
EXTT3=
EXTT4=
EXTT5=
EXTT6=
EXTT7=
EXTT8=
EXTT9=
EXTT10=
EXTT11=
EXTT12=
EXTT13=
PLAYORDER=
